<svg xmlns="http://www.w3.org/2000/svg" viewBox="0 0 146 146" width="146" height="146">
	<style>
		tspan { white-space:pre }
		.shp0 { fill: none;stroke: #67C7F1;stroke-linecap:round;stroke-width: 4 } 
	</style>
	<g id="Bullone">
		<path id="Path 619" class="shp0" d="M113.62 42.3C108.41 35.51 109.25 26.05 115.16 20.15C110.09 16.17 104.49 12.94 98.51 10.55C96.36 18.61 88.58 24.07 80.08 22.94C71.58 21.82 65.49 14.54 65.51 6.2C62.35 6.58 59.18 7.1 56.02 7.95C52.86 8.79 49.87 9.92 46.95 11.17C51.14 18.39 49.47 27.76 42.68 32.97C35.88 38.19 26.42 37.35 20.54 31.44C16.54 36.5 13.31 42.11 10.91 48.08C18.99 50.24 24.45 58.02 23.33 66.51C22.2 75.01 14.93 81.12 6.57 81.1C6.95 84.26 7.47 87.42 8.32 90.57C9.17 93.74 10.29 96.73 11.54 99.66C18.77 95.47 28.13 97.12 33.36 103.91C38.57 110.72 37.73 120.17 31.82 126.06C36.89 130.04 42.47 133.27 48.47 135.67C50.6 127.6 58.4 122.14 66.88 123.27C75.38 124.39 81.49 131.66 81.48 140.02C84.63 139.65 87.78 139.12 90.94 138.28C94.1 137.43 97.11 136.3 100.03 135.05C95.84 127.82 97.49 118.46 104.29 113.24C111.1 108.02 120.56 108.86 126.46 114.77C130.43 109.7 133.65 104.12 136.05 98.13C127.99 95.99 122.53 88.21 123.65 79.72C124.78 71.22 132.06 65.12 140.41 65.13C140.03 61.97 139.51 58.82 138.66 55.64C137.82 52.48 136.68 49.49 135.44 46.57C128.21 50.76 118.85 49.1 113.62 42.3Z" />
		<path id="Path 620" class="shp0" d="M65.48 43.25C81.99 38.83 98.93 48.61 103.35 65.11C107.77 81.62 97.99 98.56 81.48 102.98C65 107.4 48.05 97.62 43.63 81.11C39.21 64.61 48.99 47.67 65.48 43.25Z" />
	</g>
</svg>