<svg xmlns="http://www.w3.org/2000/svg" viewBox="0 0 370 310" width="370" height="310">
	<style>
		tspan { white-space:pre }
		.shp0 { fill: #ffffff;stroke: #67C7F1;stroke-width: 4 } 
	</style>
	<g id="Bespoke Solution">
		<g id="cross device">
			<g id="laptop">
				<path id="Rectangle 1772" class="shp0" d="M13.77 286.33L356.86 286.33C362.43 286.33 366.93 290.84 366.93 296.41L366.93 296.41C366.93 301.98 362.43 306.48 356.86 306.48L13.77 306.48C8.19 306.48 3.69 301.98 3.69 296.41L3.69 296.41C3.69 290.84 8.19 286.33 13.77 286.33Z" />
				<g id="Phone">
					<path id="Rectangle 1768" class="shp0" d="M39.14 2.46L331.49 2.46C350.93 2.46 366.64 18.18 366.64 37.62L366.64 238.91C366.64 258.35 350.93 274.07 331.49 274.07L39.14 274.07C19.7 274.07 3.98 258.35 3.98 238.91L3.98 37.62C3.98 18.18 19.7 2.46 39.14 2.46Z" />
					<path id="Rectangle 1769" class="shp0" d="M43.52 14.37L327.11 14.37C341.97 14.37 353.99 26.39 353.99 41.26L353.99 235.27C353.99 250.14 341.97 262.16 327.11 262.16L43.52 262.16C28.65 262.16 16.63 250.14 16.63 235.27L16.63 41.26C16.63 26.39 28.65 14.37 43.52 14.37Z" />
				</g>
			</g>
		</g>
	</g>
</svg>