<svg xmlns="http://www.w3.org/2000/svg" viewBox="0 0 130 176" width="130" height="176">
	<defs>
		<clipPath clipPathUnits="userSpaceOnUse" id="cp1">
			<path d="M-35.2 -28.83L145.03 -28.83L145.03 209.48L-35.2 209.48L-35.2 -28.83Z" />
		</clipPath>
	</defs>
	<style>
		tspan { white-space:pre }
		.shp0 { fill: none;stroke: #67C7F1;stroke-width: 4 } 
		.shp1 { fill: none;stroke: #67C7F1;stroke-linecap:round;stroke-width: 4 } 
		.shp2 { fill: #ffffff;stroke: #67C7F1;stroke-width: 4 } 
	</style>
	<g id="Bespoke Solution">
		<g id="cross device">
			<g id="laptop">
				<g id="Mask Group 33" clip-path="url(#cp1)">
					<g id="Group 552">
						<path id="Rectangle 1784" class="shp0" d="M25.53 5.88L104.33 5.88C115.76 5.88 125.01 15.12 125.01 26.56L125.01 149.75C125.01 161.18 115.76 170.42 104.33 170.42L25.53 170.42C14.09 170.42 4.85 161.18 4.85 149.75L4.85 26.56C4.85 15.12 14.09 5.88 25.53 5.88Z" />
						<g id="people">
							<path id="Path 756" class="shp1" d="M87.55 46.3C87.55 58.51 77.65 68.41 65.44 68.41C53.23 68.41 43.33 58.51 43.33 46.3C43.33 34.09 53.23 24.19 65.44 24.19C77.65 24.19 87.55 34.09 87.55 46.3Z" />
							<path id="Path 722" class="shp1" d="M72.73 38.93C72.73 45.31 69.44 50.48 65.38 50.48C61.33 50.48 58.04 45.31 58.04 38.93C58.04 34.87 61.33 31.58 65.38 31.58C69.44 31.58 72.73 34.87 72.73 38.93Z" />
							<path id="Path 721" class="shp1" d="M81.53 60.65C81.53 56.2 78.4 52.47 73.46 52.58L69.93 52.58C69.28 51.55 68.86 50.42 68.67 49.25C67.68 50.03 66.57 50.48 65.38 50.48C64.21 50.48 63.09 50.03 62.1 49.26C61.9 50.46 61.47 51.59 60.84 52.58L57.31 52.58C52.85 52.58 49.23 56.2 49.23 60.65" />
						</g>
						<path id="Rectangle 1785" class="shp2" d="M44.9 90.62L84.96 90.62C88.28 90.62 90.96 93.3 90.96 96.63L90.96 96.63C90.96 99.95 88.28 102.63 84.96 102.63L44.9 102.63C41.58 102.63 38.89 99.95 38.89 96.63L38.89 96.63C38.89 93.3 41.58 90.62 44.9 90.62Z" />
						<path id="Rectangle 1786" class="shp2" d="M44.9 108.7L84.96 108.7C88.28 108.7 90.96 111.38 90.96 114.7L90.96 114.7C90.96 118.03 88.28 120.71 84.96 120.71L44.9 120.71C41.58 120.71 38.89 118.03 38.89 114.7L38.89 114.7C38.89 111.38 41.58 108.7 44.9 108.7Z" />
						<path id="Rectangle 1787" class="shp2" d="M44.9 138.38L84.96 138.38C88.28 138.38 90.96 141.07 90.96 144.39L90.96 144.39C90.96 147.71 88.28 150.4 84.96 150.4L44.9 150.4C41.58 150.4 38.89 147.71 38.89 144.39L38.89 144.39C38.89 141.07 41.58 138.38 44.9 138.38Z" />
					</g>
				</g>
			</g>
		</g>
	</g>
</svg>