<svg xmlns="http://www.w3.org/2000/svg" viewBox="0 0 60 120" width="60" height="120">
	<defs>
		<clipPath clipPathUnits="userSpaceOnUse" id="cp1">
			<path d="M-6.87 -25.74L63.24 -25.74C70.11 -25.74 75.65 -20.2 75.65 -13.34L75.65 137.72C75.65 144.58 70.11 150.13 63.24 150.13L-6.87 150.13C-13.73 150.13 -19.28 144.58 -19.28 137.72L-19.28 -13.34C-19.28 -20.2 -13.73 -25.74 -6.87 -25.74Z" />
		</clipPath>
		<clipPath clipPathUnits="userSpaceOnUse" id="cp2">
			<path d="M-12.59 -18.54L69.37 -18.54L69.37 142.62L-12.59 142.62L-12.59 -18.54Z" />
		</clipPath>
	</defs>
	<style>
		tspan { white-space:pre }
		.shp0 { fill: none;stroke: #67C7F1;stroke-linecap:round;stroke-width: 4 } 
		.shp1 { fill: #ffffff;stroke: #67C7F1;stroke-width: 4 } 
	</style>
	<g id="Bespoke Solution">
		<g id="cross device">
			<g id="smartphone">
				<g id="Mask Group 32" clip-path="url(#cp1)">
					<g id="Screen" clip-path="url(#cp2)">
						<g id="Group 543">
							<g id="Group 553">
								<g id="people">
									<path id="Path 756" class="shp0" d="M50.45 25.54C50.45 37.07 41.1 46.42 29.56 46.42C18.03 46.42 8.68 37.07 8.68 25.54C8.68 14 18.03 4.65 29.56 4.65C41.1 4.65 50.45 14 50.45 25.54Z" />
									<path id="Path 722" class="shp0" d="M36.45 18.57C36.45 24.6 33.34 29.48 29.51 29.48C25.67 29.48 22.57 24.6 22.57 18.57C22.57 14.74 25.67 11.63 29.51 11.63C33.34 11.63 36.45 14.74 36.45 18.57Z" />
									<path id="Path 721" class="shp0" d="M44.76 39.09C44.76 34.88 41.8 31.36 37.13 31.46L33.8 31.46C33.19 30.49 32.79 29.42 32.61 28.32C31.67 29.06 30.62 29.49 29.51 29.49C28.39 29.49 27.34 29.06 26.41 28.33C26.22 29.46 25.81 30.53 25.22 31.46L21.88 31.46C17.67 31.46 14.25 34.88 14.25 39.09" />
								</g>
								<path id="Rectangle 1785" class="shp1" d="M9.05 60.2L49.1 60.2C52.43 60.2 55.11 62.89 55.11 66.21L55.11 66.21C55.11 69.53 52.43 72.22 49.1 72.22L9.05 72.22C5.73 72.22 3.04 69.53 3.04 66.21L3.04 66.21C3.04 62.89 5.73 60.2 9.05 60.2Z" />
								<path id="Rectangle 1786" class="shp1" d="M9.05 76.89L49.1 76.89C52.43 76.89 55.11 79.58 55.11 82.9L55.11 82.9C55.11 86.22 52.43 88.91 49.1 88.91L9.05 88.91C5.73 88.91 3.04 86.22 3.04 82.9L3.04 82.9C3.04 79.58 5.73 76.89 9.05 76.89Z" />
								<path id="Rectangle 1787" class="shp1" d="M9.05 104.54L49.1 104.54C52.43 104.54 55.11 107.22 55.11 110.55L55.11 110.55C55.11 113.87 52.43 116.55 49.1 116.55L9.05 116.55C5.73 116.55 3.04 113.87 3.04 110.55L3.04 110.55C3.04 107.22 5.73 104.54 9.05 104.54Z" />
							</g>
						</g>
					</g>
				</g>
			</g>
		</g>
	</g>
</svg>