<svg xmlns="http://www.w3.org/2000/svg" viewBox="0 0 500 500" width="500" height="500">
	<style>
		tspan { white-space:pre }
		.shp0 { fill: none;stroke: #67C7F1;stroke-linecap:round;stroke-width: 4 } 
	</style>
	<g id="scalable">
		<g id="Group 569">
			<path id="Path 779" class="shp0" d="M44.53 218.78L72.34 234.67L44.35 250.83L16.55 234.94L44.53 218.78Z" />
			<g id="Group 556">
				<g id="Group 555">
					<path id="Path 780" class="shp0" d="M72.34 234.67L72.67 266.97L44.68 283.13L44.35 250.83L72.34 234.67Z" />
				</g>
			</g>
			<g id="Group 558">
				<g id="Group 557">
					<path id="Path 781" class="shp0" d="M44.35 250.83L44.68 283.13L16.87 267.23L16.55 234.94L44.35 250.83Z" />
				</g>
			</g>
		</g>
		<g id="Group 570">
			<path id="Path 779" class="shp0" d="M456.81 218.78L484.61 234.67L456.63 250.83L428.82 234.94L456.81 218.78Z" />
			<g id="Group 556">
				<g id="Group 555">
					<path id="Path 780" class="shp0" d="M484.61 234.67L484.94 266.97L456.95 283.13L456.63 250.83L484.61 234.67Z" />
				</g>
			</g>
			<g id="Group 558">
				<g id="Group 557">
					<path id="Path 781" class="shp0" d="M456.63 250.83L456.95 283.13L429.14 267.23L428.82 234.94L456.63 250.83Z" />
				</g>
			</g>
		</g>
		<g id="Group 571">
			<path id="Path 779" class="shp0" d="M398.62 366.73L426.43 382.62L398.44 398.78L370.64 382.89L398.62 366.73Z" />
			<g id="Group 556">
				<g id="Group 555">
					<path id="Path 780" class="shp0" d="M426.43 382.62L426.75 414.92L398.77 431.08L398.44 398.78L426.43 382.62Z" />
				</g>
			</g>
			<g id="Group 558">
				<g id="Group 557">
					<path id="Path 781" class="shp0" d="M398.44 398.78L398.77 431.08L370.96 415.19L370.64 382.89L398.44 398.78Z" />
				</g>
			</g>
		</g>
		<g id="Group 575">
			<path id="Path 779" class="shp0" d="M398.62 67.5L426.43 83.39L398.44 99.55L370.64 83.66L398.62 67.5Z" />
			<g id="Group 556">
				<g id="Group 555">
					<path id="Path 780" class="shp0" d="M426.43 83.39L426.75 115.69L398.77 131.85L398.44 99.55L426.43 83.39Z" />
				</g>
			</g>
			<g id="Group 558">
				<g id="Group 557">
					<path id="Path 781" class="shp0" d="M398.44 99.55L398.77 131.85L370.96 115.96L370.64 83.66L398.44 99.55Z" />
				</g>
			</g>
		</g>
		<g id="Group 572">
			<path id="Path 779" class="shp0" d="M109.37 366.73L137.18 382.62L109.19 398.78L81.38 382.89L109.37 366.73Z" />
			<g id="Group 556">
				<g id="Group 555">
					<path id="Path 780" class="shp0" d="M137.18 382.62L137.5 414.92L109.51 431.08L109.19 398.78L137.18 382.62Z" />
				</g>
			</g>
			<g id="Group 558">
				<g id="Group 557">
					<path id="Path 781" class="shp0" d="M109.19 398.78L109.51 431.08L81.7 415.19L81.38 382.89L109.19 398.78Z" />
				</g>
			</g>
		</g>
		<g id="Group 576">
			<path id="Path 779" class="shp0" d="M109.37 67.5L137.18 83.39L109.19 99.55L81.38 83.66L109.37 67.5Z" />
			<g id="Group 556">
				<g id="Group 555">
					<path id="Path 780" class="shp0" d="M137.18 83.39L137.5 115.69L109.51 131.85L109.19 99.55L137.18 83.39Z" />
				</g>
			</g>
			<g id="Group 558">
				<g id="Group 557">
					<path id="Path 781" class="shp0" d="M109.19 99.55L109.51 131.85L81.7 115.96L81.38 83.66L109.19 99.55Z" />
				</g>
			</g>
		</g>
		<g id="Group 573">
			<path id="Path 779" class="shp0" d="M249.01 431.57L276.82 447.46L248.83 463.61L221.02 447.72L249.01 431.57Z" />
			<g id="Group 556">
				<g id="Group 555">
					<path id="Path 780" class="shp0" d="M276.82 447.46L277.14 479.75L249.15 495.91L248.83 463.61L276.82 447.46Z" />
				</g>
			</g>
			<g id="Group 558">
				<g id="Group 557">
					<path id="Path 781" class="shp0" d="M248.83 463.61L249.15 495.91L221.34 480.02L221.02 447.72L248.83 463.61Z" />
				</g>
			</g>
		</g>
		<g id="Group 574">
			<path id="Path 779" class="shp0" d="M250.67 4.33L278.48 20.22L250.49 36.38L222.69 20.49L250.67 4.33Z" />
			<g id="Group 556">
				<g id="Group 555">
					<path id="Path 780" class="shp0" d="M278.48 20.22L278.8 52.52L250.81 68.68L250.49 36.38L278.48 20.22Z" />
				</g>
			</g>
			<g id="Group 558">
				<g id="Group 557">
					<path id="Path 781" class="shp0" d="M250.49 36.38L250.81 68.68L223.01 52.79L222.69 20.49L250.49 36.38Z" />
				</g>
			</g>
		</g>
	</g>
</svg>