<svg id="shuttle_icon" data-name="shuttle icon" xmlns="http://www.w3.org/2000/svg" width="220" height="430" viewBox="0 0 220 430">
  <defs>
    <style>
      .cls-1 {
        fill: #fff;
      }

      .cls-1, .cls-2 {
        stroke: #67C7F1;
        stroke-width: 5.17px;
        fill-rule: evenodd;
      }

      .cls-2 {
        fill: none;
      }
    </style>
  </defs>
  <g id="shuttle">
    <g>
      <g>
        <path id="Path_773" data-name="Path 773" class="cls-1" d="M45.288,203.269A103.272,103.272,0,0,0,22.536,338.8c11.346-.5,22.882-0.885,34.518-1.194Z"/>
        <path id="Path_774" data-name="Path 774" class="cls-1" d="M171.05,200.274L159.041,337.493c13.052,0.321,25.968.746,38.668,1.314A103.281,103.281,0,0,0,171.05,200.274Z"/>
      </g>
      <path id="Path_775" data-name="Path 775" class="cls-1" d="M53.416,295.912h109.07L175.373,148.77A157.254,157.254,0,0,0,107.951,5.53a157.254,157.254,0,0,0-67.42,143.243Z"/>
      <path id="Path_776" data-name="Path 776" class="cls-1" d="M135.431,361.879c-0.261,15.1-28.445,63.3-28.445,63.3-0.016,1.014-26.486-49.155-26.219-64.252A27.336,27.336,0,1,1,135.431,361.879Z"/>
      <path id="Path_777" data-name="Path 777" class="cls-2" d="M107.954,56.314A267.2,267.2,0,0,1,157.3,60.873,158.175,158.175,0,0,0,107.951,5.53,158.142,158.142,0,0,0,58.6,60.873,267,267,0,0,1,107.954,56.314Z"/>
      <path id="Path_778" data-name="Path 778" class="cls-2" d="M143.334,119.012A35.38,35.38,0,1,1,107.951,83.63,35.379,35.379,0,0,1,143.334,119.012Z"/>
      <path id="Line_86" data-name="Line 86" class="cls-2" d="M47.126,262.391l121.65,0Z"/>
    </g>
  </g>
</svg>
