<svg xmlns="http://www.w3.org/2000/svg" viewBox="0 0 210 290" width="210" height="290">
	<style>
		tspan { white-space:pre }
		.shp0 { fill: #ffffff;stroke: #67C7F1;stroke-width: 4 } 
	</style>
	<g id="Bespoke Solution">
		<g id="cross device">
			<g id="tablet">
				<g id="Phone">
					<path id="Rectangle 1768" class="shp0" d="M182.26 285.7L26.85 285.7C14.27 285.7 4.1 275.53 4.1 262.95L4.1 26.26C4.1 13.68 14.27 3.51 26.85 3.51L182.26 3.51C194.84 3.51 205.01 13.68 205.01 26.26L205.01 262.95C205.01 275.53 194.84 285.7 182.26 285.7Z" />
					<path id="Rectangle 1769" class="shp0" d="M177.23 274.46L31.88 274.46C22.73 274.46 15.34 267.07 15.34 257.92L15.34 31.42C15.34 22.28 22.73 14.88 31.88 14.88L177.23 14.88C186.38 14.88 193.78 22.28 193.78 31.42L193.78 257.92C193.78 267.07 186.38 274.46 177.23 274.46Z" />
				</g>
			</g>
		</g>
	</g>
</svg>